<?xml version="1.0" standalone="no"?>
<!DOCTYPE svg PUBLIC "-//W3C//DTD SVG 20010904//EN"
 "http://www.w3.org/TR/2001/REC-SVG-20010904/DTD/svg10.dtd">
<svg version="1.0" xmlns="http://www.w3.org/2000/svg"
 width="1024.000000pt" height="1024.000000pt" viewBox="0 0 1024.000000 1024.000000"
 preserveAspectRatio="xMidYMid meet">

<g transform="translate(0.000000,1024.000000) scale(0.100000,-0.100000)"
fill="#000000" stroke="none">
<path d="M0 5120 l0 -5120 5120 0 5120 0 0 5120 0 5120 -5120 0 -5120 0 0
-5120z m6233 4253 c8 -16 33 -89 56 -163 55 -172 83 -238 164 -378 76 -132 94
-190 77 -252 -15 -56 -93 -133 -182 -180 l-66 -34 -43 -151 c-44 -157 -54
-258 -30 -317 14 -36 54 -37 102 -5 27 18 39 37 56 91 13 38 28 75 34 82 17
20 59 17 104 -9 52 -30 100 -123 117 -227 15 -93 13 -1370 -3 -1680 -14 -282
2 -395 72 -509 l20 -34 45 66 c61 92 157 192 208 216 70 34 152 25 177 -21 7
-13 16 -42 19 -66 l5 -42 69 117 c133 227 240 344 374 410 107 53 201 58 250
13 42 -40 26 -106 -58 -230 -20 -30 -62 -98 -92 -150 -82 -141 -359 -672 -354
-678 8 -7 246 126 436 243 295 182 369 215 480 215 106 0 160 -38 160 -113 0
-95 -44 -136 -399 -371 -135 -90 -340 -231 -456 -313 -256 -182 -369 -258
-502 -339 -79 -48 -115 -77 -159 -130 -125 -151 -237 -253 -459 -421 -66 -51
-134 -109 -151 -130 -17 -21 -113 -144 -214 -273 -221 -284 -271 -341 -369
-423 -81 -68 -139 -105 -236 -150 -58 -27 -58 -28 -20 -22 180 28 506 169 790
342 166 102 216 137 521 364 273 204 327 240 422 275 116 44 232 24 248 -43
13 -49 -31 -108 -177 -237 -74 -65 -210 -189 -304 -276 -207 -192 -288 -261
-431 -366 -278 -206 -593 -380 -881 -487 -256 -96 -487 -157 -1245 -331 -479
-110 -701 -169 -958 -256 -400 -134 -593 -240 -789 -433 -108 -107 -192 -234
-291 -443 -122 -258 -134 -279 -158 -282 -27 -4 -42 25 -71 138 -13 47 -57
202 -98 345 -98 339 -185 688 -214 850 -31 174 -33 476 -6 604 47 216 99 308
313 551 138 157 246 299 454 595 73 105 158 224 188 265 359 488 856 912 1397
1191 257 133 507 235 930 379 253 86 377 144 538 249 132 86 181 111 223 111
22 0 25 3 20 23 -3 12 -6 47 -6 79 l0 56 -37 -5 c-32 -4 -42 0 -66 25 -46 48
-45 80 8 240 60 184 84 311 95 502 13 215 14 197 -11 174 -31 -28 -52 -8 -63
59 -18 114 47 489 109 624 62 134 117 156 192 78 l43 -45 0 69 c0 63 22 167
64 304 l15 47 -27 -7 c-56 -16 -119 -9 -146 16 -64 60 -57 203 34 636 16 77
39 192 51 255 20 111 37 150 65 150 8 0 20 -12 27 -27z"/>
<path d="M7629 6243 c-92 -46 -201 -152 -281 -273 -31 -47 -115 -191 -188
-320 -172 -306 -253 -420 -434 -607 -49 -51 -87 -93 -84 -93 27 0 371 130 530
200 l93 41 174 332 c96 183 212 395 259 472 165 270 168 285 63 285 -47 0 -72
-7 -132 -37z"/>
<path d="M5821 6059 c-13 -5 -85 -48 -160 -96 -160 -103 -278 -157 -536 -248
-684 -240 -960 -368 -1320 -613 -257 -175 -432 -320 -636 -528 -188 -193 -294
-326 -559 -704 -207 -295 -293 -407 -427 -560 -144 -164 -194 -230 -238 -318
-68 -136 -95 -272 -95 -477 0 -271 39 -465 231 -1145 55 -195 108 -380 116
-410 l15 -55 21 45 c100 219 205 419 257 493 79 110 229 254 344 331 287 190
672 320 1576 531 824 192 967 230 1214 322 227 84 499 225 726 376 218 146
339 245 615 502 82 77 205 189 272 248 123 108 163 153 163 180 0 28 -31 42
-91 41 -103 -1 -181 -48 -581 -350 -95 -72 -220 -162 -278 -201 -348 -232
-712 -404 -970 -457 -93 -19 -350 -42 -373 -33 -19 7 -33 34 -24 44 3 3 71 20
149 38 191 44 288 83 393 157 125 89 205 179 485 543 l85 109 -65 -46 c-186
-132 -395 -244 -657 -352 -125 -51 -133 -53 -139 -34 -3 11 -2 23 3 28 4 4 67
31 138 60 72 29 192 84 267 122 322 162 968 642 1090 811 l20 28 -59 -27
c-244 -110 -487 -192 -803 -273 -324 -82 -328 -82 -336 -59 -3 11 -4 21 -2 23
2 3 128 36 278 74 397 100 624 176 867 291 192 91 373 205 773 489 113 79 315
218 450 307 135 89 267 181 294 205 90 79 94 149 11 178 -84 28 -214 -21 -450
-170 -490 -309 -896 -492 -1375 -620 -67 -18 -94 -29 -75 -30 17 0 -80 -14
-215 -30 -327 -39 -642 -42 -1065 -9 -165 12 -413 24 -575 26 -276 4 -285 5
-288 24 -3 14 2 20 17 20 11 0 55 11 98 25 62 20 100 41 188 107 237 176 343
231 745 385 300 114 425 203 490 346 51 112 81 268 61 320 -11 29 -21 32 -60
16z"/>
<path d="M6965 5832 c-52 -37 -127 -121 -181 -201 -39 -59 -43 -69 -37 -108 5
-37 2 -48 -17 -68 -13 -14 -34 -25 -46 -25 -13 0 -28 -9 -34 -19 -11 -22 -13
-199 -3 -304 l6 -68 35 33 c19 18 71 76 115 128 202 239 338 515 304 619 -11
34 -15 36 -57 39 -37 2 -53 -2 -85 -26z"/>
<path d="M5850 5673 c-35 -66 -111 -145 -188 -197 -59 -39 -232 -120 -302
-141 -14 -4 -92 -34 -174 -66 -187 -75 -365 -165 -461 -235 -41 -30 -108 -78
-149 -108 l-75 -54 157 -6 c86 -4 297 -16 467 -26 171 -11 378 -22 461 -26
l151 -7 15 29 c8 16 27 49 41 74 33 57 54 137 62 237 6 79 24 566 21 570 -1 1
-13 -19 -26 -44z"/>
</g>
</svg>
